<svg id="Capa_1" data-name="Capa 1" xmlns="http://www.w3.org/2000/svg" width="270.63" height="220" viewBox="0 0 270.63 220"><title>logo</title><circle cx="129.13" cy="110" r="110" style="fill:#ffd000"/><path d="M180.35,113.6v108q0,28.56-17,45.65T118,284.38q-28.18,0-43.15-16.6T59.87,220.05V113.6h49.56V219.93q0,15.25,10.86,15.26,10.5,0,10.5-15.26V113.6Z" transform="translate(-59.87 -79)"/><path d="M264.7,222.61v-43.7q15,0,15-11.47,0-10.5-11.48-10.5t-11.59,14.4V280.23H207.08V176.47q0-16.11,3.24-26.43a53.27,53.27,0,0,1,11.05-19.22,62,62,0,0,1,22-15.63,67.63,67.63,0,0,1,27.22-5.74q25.4,0,42.66,17.09T330.5,168.9q0,24.54-15.5,39.8-14.17,14-42.73,14Z" transform="translate(-59.87 -79)"/></svg>